<svg width="178" height="40" viewBox="0 0 178 40" fill="none" xmlns="http://www.w3.org/2000/svg">
<path d="M0 30.0695V27.3684L16.4957 4.1708L16.881 5.71996H0.245159V2.26415H20.033V4.96524L3.60734 28.1629L3.18707 26.6137H20.4883V30.0695H0Z" fill="white"/>
<path d="M36.2214 30.0695V25.6207L36.0463 24.7865V17.1996C36.0463 15.5842 35.626 14.3396 34.7855 13.4657C33.9683 12.5654 32.7308 12.1152 31.0731 12.1152C29.9757 12.1152 28.9017 12.327 27.851 12.7507C26.8003 13.148 25.9131 13.6908 25.1893 14.3793L23.7884 11.5194C24.7457 10.6455 25.8897 9.98345 27.2206 9.53327C28.5748 9.0566 29.9874 8.81827 31.4583 8.81827C34.0033 8.81827 35.9646 9.52003 37.3422 10.9235C38.7197 12.327 39.4085 14.472 39.4085 17.3585V30.0695H36.2214ZM30.1275 30.3078C28.7499 30.3078 27.5358 30.043 26.4851 29.5134C25.4578 28.9838 24.6639 28.2555 24.1036 27.3287C23.5432 26.3754 23.263 25.3029 23.263 24.1112C23.263 22.9725 23.4965 21.9398 23.9635 21.0129C24.4538 20.0861 25.236 19.3446 26.31 18.7885C27.4074 18.2324 28.8783 17.9543 30.7229 17.9543H36.6067V20.6951H30.863C29.1819 20.6951 28.0495 21.0129 27.4658 21.6485C26.882 22.284 26.5902 23.052 26.5902 23.9523C26.5902 24.9851 26.9521 25.8193 27.6759 26.4548C28.3997 27.0639 29.4037 27.3684 30.6878 27.3684C31.9487 27.3684 33.046 27.0506 33.98 26.4151C34.9373 25.7795 35.626 24.8527 36.0463 23.6346L36.7118 26.2562C36.2681 27.5008 35.486 28.4939 34.3652 29.2354C33.2445 29.9503 31.8319 30.3078 30.1275 30.3078Z" fill="white"/>
<path d="M45.6305 30.0695V9.01688H48.9927V30.0695H45.6305ZM47.3116 4.96524C46.6578 4.96524 46.1092 4.72691 45.6655 4.25025C45.2453 3.77358 45.0351 3.191 45.0351 2.50248C45.0351 1.78749 45.2453 1.19166 45.6655 0.714995C46.1092 0.238332 46.6578 0 47.3116 0C47.9654 0 48.5024 0.238332 48.9226 0.714995C49.3663 1.16518 49.5881 1.73452 49.5881 2.42304C49.5881 3.13803 49.3779 3.7471 48.9577 4.25025C48.5374 4.72691 47.9887 4.96524 47.3116 4.96524Z" fill="white"/>
<path d="M65.3237 8.81827C66.8413 8.81827 68.1722 9.14929 69.3163 9.81132C70.4837 10.4734 71.3943 11.4796 72.048 12.8302C72.7018 14.1807 73.0287 15.8888 73.0287 17.9543V30.0695H69.6665V18.3913C69.6665 16.3522 69.2229 14.8163 68.3356 13.7835C67.4717 12.7507 66.2459 12.2344 64.6582 12.2344C63.4675 12.2344 62.4285 12.4992 61.5412 13.0288C60.654 13.5584 59.9652 14.3396 59.4749 15.3724C59.0079 16.4052 58.7744 17.6895 58.7744 19.2254V30.0695H55.4122V9.01688H58.6343V14.6971L58.109 13.1877C58.7161 11.8107 59.65 10.7382 60.9108 9.97021C62.1716 9.20225 63.6426 8.81827 65.3237 8.81827Z" fill="white"/>
<path d="M87.5163 30.3078C85.5317 30.3078 83.7806 29.8444 82.2629 28.9176C80.7686 27.9907 79.6012 26.7196 78.7606 25.1043C77.9434 23.4889 77.5348 21.6352 77.5348 19.5432C77.5348 17.4512 77.9318 15.5975 78.7256 13.9821C79.5428 12.3668 80.6519 11.1089 82.0528 10.2085C83.477 9.28169 85.0764 8.81827 86.8509 8.81827C88.6487 8.81827 90.2364 9.26845 91.614 10.1688C92.9915 11.0692 94.0656 12.3403 94.8361 13.9821C95.6299 15.5975 96.0268 17.4909 96.0268 19.6624C96.0268 19.8212 96.0152 20.0066 95.9918 20.2185C95.9918 20.4303 95.9801 20.6289 95.9568 20.8143H80.1615V18.0735H94.2057L92.8398 19.0268C92.8631 17.6763 92.618 16.4714 92.1043 15.4121C91.5906 14.3529 90.8785 13.5319 89.9679 12.9494C89.0807 12.3403 88.0417 12.0357 86.8509 12.0357C85.6835 12.0357 84.6445 12.3403 83.7339 12.9494C82.8233 13.5319 82.1111 14.3661 81.5975 15.4518C81.0838 16.5111 80.827 17.7292 80.827 19.1063V19.7418C80.827 21.1453 81.1072 22.4032 81.6675 23.5154C82.2512 24.6011 83.0568 25.4485 84.0841 26.0576C85.1114 26.6667 86.2905 26.9712 87.6214 26.9712C88.7188 26.9712 89.7111 26.7594 90.5983 26.3356C91.5089 25.9119 92.3028 25.2764 92.9799 24.429L94.8361 26.8918C93.9955 28.004 92.9448 28.8514 91.684 29.434C90.4466 30.0166 89.0573 30.3078 87.5163 30.3078Z" fill="white"/>
<path d="M134.629 11.9166V11.0824C133.579 11.5591 132.621 12.5257 131.757 13.9821C130.894 15.4121 130.438 16.7627 130.392 18.0338V30.0695H127.064V10.2085H130.392V16.5243C130.765 14.9884 131.477 13.5452 132.528 12.1946C133.579 10.8176 134.769 10.1026 136.1 10.0497H136.24C136.707 10.0497 137.093 10.235 137.396 10.6058C137.723 10.95 137.886 11.387 137.886 11.9166C137.886 12.4462 137.723 12.8832 137.396 13.2274C137.093 13.5717 136.707 13.7438 136.24 13.7438C135.773 13.7438 135.388 13.5717 135.085 13.2274C134.781 12.8832 134.629 12.4462 134.629 11.9166Z" fill="white"/>
<path d="M145.35 20.3774C145.35 23.661 145.852 26.0708 146.856 27.6068C147.883 29.1427 149.226 29.9106 150.883 29.9106C153.218 29.9106 155.296 29.5134 157.117 28.719L157.222 28.997C155.355 29.8179 153.242 30.2284 150.883 30.2284C148.549 30.2284 145.77 29.434 144.299 27.8451C142.828 26.2562 142.093 23.8067 142.093 20.4965C142.093 17.1864 142.863 14.6177 144.404 12.7905C145.945 10.9633 148.782 10.0497 151.164 10.0497C153.078 10.0497 154.689 10.6984 155.997 11.996C157.304 13.2936 157.958 15.2135 157.958 17.7557C157.958 17.8881 157.958 18.0205 157.958 18.1529H145.455C145.385 18.8679 145.35 19.6094 145.35 20.3774ZM155.576 17.8352C155.553 15.2929 155.121 13.4128 154.281 12.1946C153.44 10.9765 152.354 10.3674 151.023 10.3674C149.693 10.3674 148.502 11.0295 147.451 12.3535C146.424 13.6776 145.77 15.5048 145.49 17.8352H155.576Z" fill="white"/>
<path d="M167.913 37.1797C167.166 39.0599 166.244 40 165.147 40C164.656 40 164.084 39.9073 163.431 39.7219V39.4042C163.968 39.5631 164.446 39.6425 164.866 39.6425C166.057 39.6425 166.968 38.8216 167.598 37.1797L169.665 32.0556H169.63L163.115 10.2085H166.442L171.871 26.7726L177.229 14.1807C177.51 13.6246 177.65 12.9626 177.65 12.1946C177.65 11.4267 177.463 10.8441 177.089 10.4469L177.3 10.2085C177.393 10.2615 177.51 10.4204 177.65 10.6852C177.813 10.95 177.907 11.1883 177.93 11.4002C177.977 11.612 178 11.8107 178 11.996C178 12.711 177.86 13.4393 177.58 14.1807L170.855 30.0695L167.913 37.1797Z" fill="white"/>
<path d="M113.733 30.2284C109.367 30.2284 105.258 28.8249 103.156 26.0179C102.409 25.0116 101.335 22.006 101.335 22.006C101.335 22.006 100.635 18.3118 100.635 15.9285C100.635 13.5452 100.973 11.4134 101.65 9.53327C102.351 7.62661 103.296 6.1569 104.487 5.12413C106.799 3.191 110.464 2.22443 113.733 2.22443C114.784 2.22443 115.811 2.31711 116.815 2.50248C117.819 2.66137 118.566 2.8335 119.056 3.01887L119.792 3.29692L119.687 3.69414C117.866 2.97915 115.881 2.62165 113.733 2.62165C111.258 2.62165 109.192 3.53525 107.534 5.36246C106.273 6.71301 105.386 8.69911 104.872 11.3208C104.569 12.8037 104.417 14.6177 104.417 16.7627C104.417 18.9076 104.685 20.8937 105.222 22.721C105.76 24.5217 106.367 25.859 107.044 26.7329C107.744 27.6068 108.585 28.3085 109.565 28.8381C110.546 29.3413 111.328 29.6326 111.912 29.712C112.496 29.7915 113.184 29.8312 113.978 29.8312C114.795 29.8312 115.881 29.7253 117.235 29.5134V20.9335H121.648V21.3307H120.142V29.1559C118.368 29.8709 116.231 30.2284 113.733 30.2284Z" fill="white"/>
</svg>
