<svg width="647" height="637" viewBox="0 0 647 637" fill="#383838" xmlns="http://www.w3.org/2000/svg">
<path fill-rule="evenodd" clip-rule="evenodd" d="M463.827 160.267C457.066 154.595 456.186 144.517 461.858 137.761L511.483 78.616C517.16 71.8608 527.238 70.9805 533.989 76.6472C540.749 82.3191 541.634 92.3965 535.957 99.1525L486.332 158.298C483.171 162.063 478.645 164.006 474.087 164.006C470.462 164.006 466.822 162.777 463.827 160.267L463.827 160.267ZM323.72 146.371C223.747 146.371 142.413 227.704 142.413 327.677C142.413 427.647 223.741 508.984 323.72 508.984C423.689 508.984 505.027 427.651 505.027 327.677C505.027 227.704 423.693 146.371 323.72 146.371V146.371ZM307.465 93.392V16.184C307.465 7.36106 314.616 0.205322 323.444 0.205322C332.267 0.205322 339.423 7.35639 339.423 16.184V93.392C339.423 102.215 332.272 109.371 323.444 109.371C314.616 109.371 307.465 102.22 307.465 93.392ZM111.039 99.5117C105.362 92.7513 106.252 82.6784 113.007 77.0064C119.763 71.3293 129.841 72.2147 135.513 78.9752L185.138 138.121C190.815 144.881 189.925 154.959 183.169 160.626C180.175 163.136 176.534 164.365 172.909 164.365C168.346 164.365 163.826 162.423 160.664 158.657L111.039 99.5117ZM90.164 303.005L14.1333 289.598C5.44065 288.067 -0.361348 279.781 1.17492 271.088C2.70092 262.4 10.9874 256.604 19.6802 258.129L95.7163 271.536C104.409 273.067 110.211 281.354 108.675 290.041C107.31 297.791 100.565 303.244 92.9613 303.244C92.0342 303.255 91.102 303.171 90.1644 303.005L90.164 303.005ZM134.789 437.072C139.201 444.712 136.581 454.484 128.946 458.9L62.0816 497.504C59.566 498.957 56.816 499.644 54.1076 499.644C48.5816 499.644 43.2117 496.775 40.2582 491.655C35.8468 484.009 38.4665 474.243 46.1072 469.827L112.971 431.223C120.622 426.817 130.383 429.431 134.789 437.072H134.789ZM258.852 553.389L232.445 625.941C230.086 632.431 223.961 636.457 217.435 636.457C215.617 636.457 213.773 636.149 211.971 635.493C203.674 632.478 199.403 623.311 202.424 615.02L228.831 542.468C231.852 534.176 241.034 529.91 249.309 532.921C257.596 535.931 261.872 545.098 258.851 553.39L258.852 553.389ZM445.519 614.826C448.534 623.118 444.263 632.285 435.967 635.3C434.164 635.956 432.321 636.268 430.508 636.268C423.982 636.268 417.857 632.237 415.492 625.753L389.085 553.201C386.07 544.909 390.341 535.742 398.638 532.728C406.924 529.717 416.096 533.988 419.111 542.28L445.519 614.826ZM607.452 491.17C604.494 496.301 599.124 499.16 593.603 499.16C590.894 499.16 588.144 498.467 585.629 497.019L518.765 458.415C511.124 454.004 508.504 444.233 512.916 436.587C517.327 428.947 527.098 426.332 534.744 430.738L601.608 469.348C609.238 473.759 611.863 483.525 607.452 491.17H607.452ZM633.201 289.05L557.171 302.457C556.228 302.624 555.296 302.707 554.374 302.707C546.764 302.707 540.024 297.254 538.66 289.504C537.129 280.811 542.926 272.531 551.619 270.999L627.655 257.592C636.363 256.056 644.633 261.863 646.165 270.55C647.691 279.233 641.89 287.52 633.202 289.05H633.201Z" fill="#383838"/>
</svg>
